<svg width="87" height="50" viewBox="0 0 87 50" fill="none" xmlns="http://www.w3.org/2000/svg">
<rect width="87" height="50" fill="white"/>
<path d="M11.1136 34V16.5455H21.5795V18.4205H13.2273V24.3182H20.7955V26.1932H13.2273V34H11.1136ZM22.8662 34V20.9091H24.8094V22.8864H24.9458C25.1844 22.2386 25.6162 21.7131 26.2412 21.3097C26.8662 20.9062 27.5708 20.7045 28.3549 20.7045C28.5026 20.7045 28.6872 20.7074 28.9088 20.7131C29.1304 20.7187 29.298 20.7273 29.4117 20.7386V22.7841C29.3435 22.767 29.1872 22.7415 28.9429 22.7074C28.7043 22.6676 28.4514 22.6477 28.1844 22.6477C27.548 22.6477 26.9799 22.7812 26.4799 23.0483C25.9855 23.3097 25.5935 23.6733 25.3037 24.1392C25.0196 24.5994 24.8776 25.125 24.8776 25.7159V34H22.8662ZM29.8759 34V20.9091H31.8873V34H29.8759ZM30.8986 18.7273C30.5066 18.7273 30.1685 18.5938 29.8844 18.3267C29.606 18.0597 29.4668 17.7386 29.4668 17.3636C29.4668 16.9886 29.606 16.6676 29.8844 16.4006C30.1685 16.1335 30.5066 16 30.8986 16C31.2907 16 31.6259 16.1335 31.9043 16.4006C32.1884 16.6676 32.3305 16.9886 32.3305 17.3636C32.3305 17.7386 32.1884 18.0597 31.9043 18.3267C31.6259 18.5938 31.2907 18.7273 30.8986 18.7273ZM39.1399 34.2727C37.8785 34.2727 36.7904 33.9943 35.8757 33.4375C34.9666 32.875 34.2649 32.0909 33.7705 31.0852C33.2819 30.0739 33.0376 28.8977 33.0376 27.5568C33.0376 26.2159 33.2819 25.0341 33.7705 24.0114C34.2649 22.983 34.9524 22.1818 35.833 21.608C36.7194 21.0284 37.7535 20.7386 38.9353 20.7386C39.6171 20.7386 40.2904 20.8523 40.9552 21.0795C41.62 21.3068 42.2251 21.6761 42.7705 22.1875C43.316 22.6932 43.7507 23.3636 44.0745 24.1989C44.3984 25.0341 44.5603 26.0625 44.5603 27.2841V28.1364H34.4694V26.3977H42.5149C42.5149 25.6591 42.3671 25 42.0717 24.4205C41.7819 23.8409 41.3671 23.3835 40.8274 23.0483C40.2933 22.7131 39.6626 22.5455 38.9353 22.5455C38.1342 22.5455 37.441 22.7443 36.8558 23.142C36.2762 23.5341 35.8302 24.0455 35.5177 24.6761C35.2052 25.3068 35.0489 25.983 35.0489 26.7045V27.8636C35.0489 28.8523 35.2194 29.6903 35.5603 30.3778C35.9069 31.0597 36.387 31.5795 37.0007 31.9375C37.6143 32.2898 38.3274 32.4659 39.1399 32.4659C39.6683 32.4659 40.1455 32.392 40.5717 32.2443C41.0035 32.0909 41.3757 31.8636 41.6882 31.5625C42.0007 31.2557 42.2421 30.875 42.4126 30.4205L44.3558 30.9659C44.1512 31.625 43.8075 32.2045 43.3245 32.7045C42.8416 33.1989 42.245 33.5852 41.5347 33.8636C40.8245 34.1364 40.0262 34.2727 39.1399 34.2727ZM45.9727 34V16.5455H47.9841V22.9886H48.1545C48.3022 22.7614 48.5068 22.4716 48.7682 22.1193C49.0352 21.7614 49.4159 21.4432 49.9102 21.1648C50.4102 20.8807 51.0863 20.7386 51.9386 20.7386C53.0409 20.7386 54.0125 21.0142 54.8534 21.5653C55.6943 22.1165 56.3505 22.8977 56.8221 23.9091C57.2937 24.9205 57.5295 26.1136 57.5295 27.4886C57.5295 28.875 57.2937 30.0767 56.8221 31.0938C56.3505 32.1051 55.6971 32.8892 54.8619 33.446C54.0267 33.9972 53.0636 34.2727 51.9727 34.2727C51.1318 34.2727 50.4585 34.1335 49.9528 33.8551C49.4471 33.571 49.0579 33.25 48.7852 32.892C48.5125 32.5284 48.3022 32.2273 48.1545 31.9886H47.9159V34H45.9727ZM47.95 27.4545C47.95 28.4432 48.0949 29.3153 48.3846 30.071C48.6744 30.821 49.0977 31.4091 49.6545 31.8352C50.2113 32.2557 50.8932 32.4659 51.7 32.4659C52.5409 32.4659 53.2426 32.2443 53.8051 31.8011C54.3733 31.3523 54.7994 30.75 55.0835 29.9943C55.3733 29.233 55.5182 28.3864 55.5182 27.4545C55.5182 26.5341 55.3761 25.7045 55.092 24.9659C54.8136 24.2216 54.3903 23.6335 53.8221 23.2017C53.2596 22.7642 52.5522 22.5455 51.7 22.5455C50.8818 22.5455 50.1943 22.7528 49.6375 23.1676C49.0807 23.5767 48.6602 24.1506 48.3761 24.8892C48.092 25.6222 47.95 26.4773 47.95 27.4545ZM62.5385 34.3068C61.709 34.3068 60.9561 34.1506 60.28 33.8381C59.6038 33.5199 59.0669 33.0625 58.6692 32.4659C58.2715 31.8636 58.0726 31.1364 58.0726 30.2841C58.0726 29.5341 58.2203 28.9261 58.5158 28.4602C58.8112 27.9886 59.2061 27.6193 59.7004 27.3523C60.1947 27.0852 60.7402 26.8864 61.3368 26.7557C61.9391 26.6193 62.5442 26.5114 63.1521 26.4318C63.9476 26.3295 64.5925 26.2528 65.0868 26.2017C65.5868 26.1449 65.9504 26.0511 66.1777 25.9205C66.4107 25.7898 66.5271 25.5625 66.5271 25.2386V25.1705C66.5271 24.3295 66.297 23.6761 65.8368 23.2102C65.3822 22.7443 64.6919 22.5114 63.7658 22.5114C62.8055 22.5114 62.0527 22.7216 61.5072 23.142C60.9618 23.5625 60.5783 24.0114 60.3567 24.4886L58.4476 23.8068C58.7885 23.0114 59.243 22.392 59.8112 21.9489C60.3851 21.5 61.0101 21.1875 61.6862 21.0114C62.368 20.8295 63.0385 20.7386 63.6976 20.7386C64.118 20.7386 64.601 20.7898 65.1465 20.892C65.6976 20.9886 66.2288 21.1903 66.7402 21.4972C67.2572 21.804 67.6862 22.267 68.0271 22.8864C68.368 23.5057 68.5385 24.3352 68.5385 25.375V34H66.5271V32.2273H66.4249C66.2885 32.5114 66.0612 32.8153 65.743 33.1392C65.4249 33.4631 65.0016 33.7386 64.4732 33.9659C63.9447 34.1932 63.2999 34.3068 62.5385 34.3068ZM62.8453 32.5C63.6408 32.5 64.3112 32.3438 64.8567 32.0312C65.4078 31.7188 65.8226 31.3153 66.101 30.821C66.3851 30.3267 66.5271 29.8068 66.5271 29.2614V27.4205C66.4419 27.5227 66.2544 27.6165 65.9646 27.7017C65.6805 27.7812 65.351 27.8523 64.976 27.9148C64.6067 27.9716 64.2459 28.0227 63.8936 28.0682C63.547 28.108 63.2658 28.142 63.0499 28.1705C62.5271 28.2386 62.0385 28.3494 61.584 28.5028C61.1351 28.6506 60.7715 28.875 60.493 29.1761C60.2203 29.4716 60.084 29.875 60.084 30.3864C60.084 31.0852 60.3425 31.6136 60.8595 31.9716C61.3822 32.3239 62.0442 32.5 62.8453 32.5ZM72.301 16.5455V34H70.2897V16.5455H72.301ZM76.0763 16.5455V34H74.065V16.5455H76.0763Z" fill="black"/>
</svg>
